<svg width="43" height="43" viewBox="0 0 43 43" fill="none" xmlns="http://www.w3.org/2000/svg">
<path d="M19.9381 2.18665L18.6911 5.03378C18.0456 5.07317 17.4034 5.15445 16.7684 5.27712L14.8609 2.81392L12.8049 3.51296L12.7946 6.64686C11.9237 7.09453 11.0891 7.63577 10.3006 8.26747L7.39492 6.95918L5.90728 8.54153L7.39483 11.363C6.92024 12.0396 6.50317 12.7547 6.148 13.501L2.95773 13.588L2.30998 15.6592L4.88575 17.5566C4.76244 18.3251 4.70222 19.1017 4.69878 19.8789L1.83887 21.328L2.13841 23.4787L5.27747 24.0932C5.46512 24.7502 5.69781 25.3935 5.97389 26.0186L3.90519 28.5868L5.05986 30.425L8.27569 29.6723C8.47918 29.9117 8.69006 30.1448 8.90804 30.3711C9.3633 30.8421 9.84824 31.2833 10.3599 31.6923L9.73514 34.9133L11.6145 35.9989L14.0698 33.861C14.7724 34.1434 15.4957 34.371 16.2334 34.542L17.0349 37.6887L19.1983 37.8654L20.4989 34.8978C21.3977 34.8437 22.2936 34.7094 23.1745 34.4932L25.2408 36.8873L27.2558 36.0807L27.1968 34.8671L22.4934 31.3006C21.1242 31.6467 19.7043 31.7394 18.3097 31.5821C15.7081 31.2888 13.2078 30.1139 11.2457 28.0848C6.76093 23.4463 6.88915 16.0678 11.5274 11.5832C13.774 9.41091 16.6637 8.30893 19.5567 8.27771C22.6366 8.24445 25.7192 9.42443 28.0316 11.8161C31.7951 15.7089 32.3081 21.5648 29.6344 25.9981L32.2537 27.985C32.5794 27.4743 32.8735 26.9441 33.1345 26.3975L36.3016 26.3104L36.9493 24.2392L34.3917 22.3548C34.515 21.5799 34.5775 20.7966 34.5785 20.012L37.4205 18.568L37.1211 16.4172L33.9847 15.8027C33.7208 14.8942 33.371 14.0129 32.9401 13.1707L34.8089 10.5821L33.5595 8.80773L30.4821 9.70128C30.4434 9.66031 30.4059 9.61877 30.3667 9.57838C29.8824 9.07719 29.364 8.61005 28.8152 8.18029L29.4041 5.13857L27.5245 4.05305L25.1895 6.08611C24.4336 5.7819 23.6572 5.54512 22.8697 5.36921L22.1042 2.36329L19.9381 2.18665ZM15.1733 14.7632C14.3258 14.7729 13.4857 14.981 12.7153 15.3597L16.4203 18.1711C17.5408 19.0212 17.8586 20.6368 16.9987 21.7709C16.1386 22.9057 14.487 23.0763 13.3503 22.214L9.64796 19.4052C9.26886 21.4366 9.98675 23.5889 11.7449 24.9228C13.3217 26.1188 15.3453 26.3427 17.0885 25.7166L17.4802 25.5757L17.8104 25.8266L28.8867 34.2299L29.2169 34.4808L29.1887 34.8956C29.0546 36.7432 29.8106 38.6325 31.3881 39.8293C33.1464 41.1631 35.4147 41.2737 37.2692 40.3618L33.567 37.5532C32.4303 36.6908 32.1511 35.0538 33.0115 33.92C33.8718 32.7861 35.5135 32.6579 36.6343 33.5077L40.3366 36.3166C40.7148 34.286 39.9999 32.1326 38.2422 30.799C36.6599 29.598 34.6522 29.3601 32.9193 29.977L32.5301 30.1153L32.1999 29.8643L21.1235 21.4612L20.7933 21.2103L20.8215 20.7981C20.9485 18.9639 20.1783 17.0953 18.5965 15.8949C17.5687 15.1153 16.3661 14.7497 15.1734 14.7633L15.1733 14.7632ZM18.7425 22.1576L32.1691 32.3453L31.2447 33.5666L17.8156 23.3763L18.7425 22.1576Z" fill="black"/>
</svg>
