<svg width="32" height="33" viewBox="0 0 32 33" fill="none" xmlns="http://www.w3.org/2000/svg">
<path d="M28.4141 10.5L20 2.08594C19.6242 1.71199 19.1161 1.50142 18.5859 1.5H8C6.6744 1.50156 5.40353 2.02884 4.46619 2.96618C3.52884 3.90353 3.00156 5.1744 3 6.5V26.5C3.00156 27.8256 3.52884 29.0965 4.46619 30.0338C5.40353 30.9712 6.6744 31.4984 8 31.5H24C25.3256 31.4984 26.5965 30.9712 27.5338 30.0338C28.4712 29.0965 28.9984 27.8256 29 26.5V11.9141C29.0007 11.6513 28.9493 11.3911 28.8487 11.1483C28.7481 10.9056 28.6004 10.6852 28.4141 10.5ZM19 3.91406L26.5859 11.5H22C21.2046 11.4991 20.4421 11.1828 19.8796 10.6204C19.3172 10.0579 19.0009 9.29538 19 8.5V3.91406ZM27 26.5C26.9991 27.2954 26.6828 28.0579 26.1204 28.6204C25.5579 29.1828 24.7954 29.4991 24 29.5H8C7.20462 29.4991 6.44206 29.1828 5.87964 28.6204C5.31722 28.0579 5.00087 27.2954 5 26.5V6.5C5.00087 5.70462 5.31722 4.94206 5.87964 4.37964C6.44206 3.81722 7.20462 3.50087 8 3.5H17V8.5C17.0016 9.8256 17.5288 11.0965 18.4662 12.0338C19.4035 12.9712 20.6744 13.4984 22 13.5H27V26.5Z" fill="#222222"/>
</svg>
