<svg width="169" height="107" viewBox="0 0 169 107" fill="none" xmlns="http://www.w3.org/2000/svg">
<path id="Vector" d="M171.388 0.232698C170.764 0.347435 167.438 0.852433 163.997 1.38032C156.906 2.43619 153.557 3.07886 149.1 4.24946C147.367 4.68547 144.018 5.3052 141.593 5.62669C131.731 6.9122 119.813 8.93192 117.457 9.71218C116.88 9.89594 115.586 10.2174 114.57 10.4468C112.468 10.8828 111.73 11.4569 111.245 13.0635C110.667 14.9687 111.337 17.3555 113.416 20.8445C114.108 22.0151 114.871 23.4151 115.125 23.9432C115.633 25.1138 116.834 26.5138 117.711 26.973C118.081 27.1567 118.912 27.7765 119.559 28.3502C120.414 29.1076 120.876 29.3602 121.245 29.2681C122.262 29.0387 127.805 27.937 135.935 26.3761C140.577 25.4809 144.504 24.7006 144.688 24.6318C145.058 24.5169 145.474 23.8971 140.738 30.462C138.752 33.2163 135.796 37.5084 134.156 39.9873C132.539 42.4663 129.699 46.8044 127.851 49.6048C123.347 56.4674 119.282 62.0911 114.94 67.4393C112.953 69.8721 110.113 73.384 108.612 75.2431C104.292 80.5453 98.1948 88.5101 94.5918 93.5825C91.8202 97.4386 91.22 98.1504 91.035 97.8289C90.9194 97.5995 88.8641 94.2022 86.5083 90.3005C84.1291 86.3755 80.8032 80.7519 79.1173 77.7909C73.1584 67.3016 69.7632 63.009 66.7837 62.2748C66.4143 62.1827 65.6751 61.8385 65.1671 61.4942C63.5735 60.4613 62.9035 60.2779 60.9405 60.4385C58.2841 60.6222 55.9053 60.9433 55.5818 61.1271C55.4203 61.2187 54.1267 61.6091 52.6717 61.9534C49.5307 62.7336 48.2142 63.4222 45.6041 65.6946C41.6087 69.1836 38.3058 73.2234 35.0029 78.6861C29.7603 87.3851 18.5354 112.243 11.7909 130.147C10.8672 132.603 9.04272 137.354 7.74917 140.705C1.85957 155.877 -0.611896 164.852 0.127336 168.272C0.658699 170.797 3.15312 174.194 4.44624 174.194C5.13913 174.194 5.73978 173.39 7.05628 170.751C7.72622 169.419 9.27353 166.642 10.5207 164.553C15.4173 156.313 18.7662 150.024 26.411 134.715C35.1414 117.201 39.6223 108.135 42.0474 103.039C47.3827 91.861 50.5237 86.9492 55.4432 82.0374C59.1156 78.3646 60.6863 77.9287 62.4415 80.0633C63.8965 81.8076 65.7444 84.5619 68.1466 88.579C69.3938 90.6676 71.6803 94.4776 73.2506 97.0715C74.7984 99.6653 77.4314 104.187 79.1173 107.148C84.1061 115.962 85.2611 117.637 87.1778 118.946C87.7555 119.336 88.6329 120.002 89.1413 120.437C90.2729 121.448 91.705 122.09 92.8136 122.09C94.0145 122.09 96.2547 121.31 97.8024 120.323C101.521 117.982 103.969 115.388 110.297 107.079C115.748 99.9635 118.982 95.9237 123.901 90.0939C132.817 79.5813 138.244 72.7414 144.873 63.606C146.674 61.1271 151.663 54.4249 155.959 48.7324L163.766 38.3575L163.927 42.0759C164.112 46.7816 165.29 53.6903 167.346 62.0683C167.854 64.088 168.316 66.1766 168.408 66.7046C168.616 67.9901 169.286 68.7015 170.094 68.495C171.134 68.2423 172.15 67.0029 173.512 64.3862C176.469 58.6253 179.24 49.6504 179.864 43.8206C180.049 42.0303 180.049 38.8167 179.841 31.426C179.703 25.9401 179.587 17.5621 179.587 12.8341C179.587 7.89903 179.495 3.88223 179.356 3.44609C179.033 2.34435 178.293 1.63282 177.254 1.47216C176.7 1.38032 176.076 1.05901 175.684 0.645855C175.083 0.0720016 174.852 -0.0197987 173.767 0.00313993C173.097 0.0261216 172.034 0.117919 171.388 0.232698Z" fill="#B5E1D1"/>
</svg>
