<svg width="32" height="33" viewBox="0 0 32 33" fill="none" xmlns="http://www.w3.org/2000/svg">
<path d="M16 1.29785L16.555 1.66785C20.398 4.22985 24.208 5.49985 28 5.49985H29V17.9999C29 26.0739 23.21 31.4999 16 31.4999C8.79 31.4999 3 26.0739 3 17.9999V5.49985H4C7.792 5.49985 11.602 4.22985 15.445 1.66785L16 1.29785ZM15 4.30285C11.8 6.16885 8.582 7.22285 5.352 7.45185L5 7.47185V17.9999C5 24.5579 9.347 28.9909 15 29.4589V4.30285ZM17 4.30285V29.4599C22.654 28.9918 27 24.5589 27 18.0009V7.47185L26.648 7.45185C23.418 7.22185 20.2 6.16985 17.001 4.30385L17 4.30285Z" fill="#222222"/>
</svg>
