<svg width="43" height="43" viewBox="0 0 43 43" fill="none" xmlns="http://www.w3.org/2000/svg">
<path d="M13.0129 40.6674L9.51709 14.4492H33.9874L30.4917 40.6674H13.0129ZM16.0716 37.1716H27.4329L29.9673 17.9449H13.4935L16.0716 37.1716ZM21.7523 28.4322C23.2088 28.4322 24.4469 27.9224 25.4665 26.9028C26.4861 25.8832 26.9959 24.6451 26.9959 23.1886V19.6928H23.5001V23.1886C23.5001 23.6838 23.3323 24.0992 22.9967 24.4348C22.6612 24.7704 22.2463 24.9376 21.7523 24.9364C21.257 24.9364 20.8416 24.7687 20.506 24.4331C20.1704 24.0975 20.0032 23.6826 20.0044 23.1886V19.6928H16.5086V23.1886C16.5086 24.6451 17.0184 25.8832 18.038 26.9028C19.0576 27.9224 20.2957 28.4322 21.7523 28.4322ZM26.9959 12.7013C26.2676 12.7013 25.6483 12.4461 25.1379 11.9357C24.6275 11.4253 24.3729 10.8066 24.3741 10.0795C24.3741 9.35117 24.6293 8.73184 25.1397 8.22146C25.65 7.71108 26.2688 7.45647 26.9959 7.45763C27.7242 7.45763 28.3435 7.71282 28.8539 8.22321C29.3643 8.73359 29.6189 9.35234 29.6177 10.0795C29.6177 10.8077 29.3625 11.4271 28.8522 11.9375C28.3418 12.4478 27.723 12.7024 26.9959 12.7013ZM18.2565 10.9534C17.033 10.9534 15.9988 10.531 15.154 9.68618C14.3092 8.84137 13.8868 7.80721 13.8868 6.58369C13.8868 5.36018 14.3092 4.32601 15.154 3.4812C15.9988 2.63639 17.033 2.21399 18.2565 2.21399C19.48 2.21399 20.5142 2.63639 21.359 3.4812C22.2038 4.32601 22.6262 5.36018 22.6262 6.58369C22.6262 7.80721 22.2038 8.84137 21.359 9.68618C20.5142 10.531 19.48 10.9534 18.2565 10.9534Z" fill="black"/>
</svg>
