<svg width="30" height="30" viewBox="0 0 30 30" fill="none" xmlns="http://www.w3.org/2000/svg">
<path d="M1.25 3.75H6.9375V5.625H3.125V9.4375H1.25V3.75ZM23.0313 3.75H28.7188V9.4375H26.8438V5.625H23.0313V3.75ZM26.8438 24.375V20.5625H28.7188V26.25H23.0313V24.375H26.8438ZM3.125 20.5625V24.375H6.9375V26.25H1.25V20.5625H3.125ZM8.5625 7.1875H9.875V22.7812H8.5625V7.1875ZM4.78125 7.1875H7.28125V22.7812H4.78125V7.1875ZM12.375 7.1875H14.9688V22.7812H12.375V7.1875ZM21.375 7.1875H22.6875V22.7812H21.375V7.1875ZM23.9688 7.1875H25.1563V22.7812H23.9688V7.1875ZM16.2813 7.1875H20.0625V22.7812H16.2813V7.1875Z" fill="#37BD6B"/>
</svg>
