<svg width="80" height="80" viewBox="0 0 80 80" fill="none" xmlns="http://www.w3.org/2000/svg">
<path d="M8.01502 39.9041C10.935 46.3711 15.908 53.3771 21.658 59.1271C27.791 65.2601 34.557 70.1171 40.71 72.8011C44.06 74.2631 47.057 74.9941 49.58 74.9941C52.088 74.9941 54.127 74.2701 55.574 72.8221L61.378 67.0201C63.141 65.2551 62.983 62.2271 61.025 60.2681L52.473 51.7151C50.513 49.7571 47.483 49.6001 45.721 51.3631L43.058 54.0261C42.32 54.5781 37.759 53.1731 32.628 48.0421C27.494 42.9091 26.086 38.3451 26.641 37.6141L29.307 34.9481C31.07 33.1841 30.912 30.1541 28.954 28.1961L20.4 19.6441C18.44 17.6861 15.412 17.5271 13.648 19.2921L7.84602 25.0941C4.94902 27.9901 5.00902 33.2501 8.01402 39.9041H8.01502ZM10.675 27.9221L16.478 22.1201C16.518 22.0801 16.598 22.0561 16.701 22.0561C16.927 22.0561 17.27 22.1691 17.573 22.4721L26.125 31.0241C26.567 31.4661 26.605 31.9931 26.478 32.1201L23.812 34.7851C20.498 38.1011 24.315 45.3861 29.799 50.8701C32.53 53.6001 35.533 55.7821 38.255 57.0111C42.735 59.0351 44.958 57.7831 45.883 56.8561L48.549 54.1911C48.677 54.0631 49.202 54.1021 49.645 54.5431L58.196 63.0961C58.638 63.5381 58.676 64.0641 58.549 64.1911L52.746 69.9941C51.136 71.6051 47.235 71.2841 42.31 69.1341C36.604 66.6451 30.274 62.0861 24.486 56.2991C19.064 50.8771 14.39 44.3001 11.66 38.2571C9.45402 33.3741 9.08502 29.5111 10.674 27.9221H10.675Z" fill="#266EF1"/>
<path d="M35.7 15.9258V19.9258C49.57 19.9258 60.8549 31.2098 60.8549 45.0798H64.855C64.855 29.0038 51.775 15.9258 35.7 15.9258Z" fill="#D4E2FC"/>
<path d="M50.6721 45.0799H54.6721C54.6721 34.6199 46.1621 26.1079 35.701 26.1079V30.1079C43.956 30.1079 50.6721 36.8249 50.6721 45.0799Z" fill="#D4E2FC"/>
</svg>
