<svg width="54" height="55" viewBox="0 0 54 55" fill="none" xmlns="http://www.w3.org/2000/svg">
<rect y="0.563965" width="53.7373" height="53.7373" rx="10.7475" fill="#F0EFF9"/>
<path opacity="0.8" d="M38.9595 36.8367V34.6255C38.9595 33.5269 38.2906 32.5389 37.2705 32.1308L34.5378 31.0377C33.2403 30.5188 31.7616 31.081 31.1367 32.3308L30.8989 32.8064C30.8989 32.8064 27.5403 32.1347 24.8535 29.4478C22.1666 26.761 21.4949 23.4024 21.4949 23.4024L21.9705 23.1646C23.2204 22.5397 23.7825 21.061 23.2636 19.7635L22.1705 17.0308C21.7624 16.0107 20.7745 15.3418 19.6758 15.3418H17.4646C15.9807 15.3418 14.7777 16.5447 14.7777 18.0287C14.7777 29.9 24.4013 39.5236 36.2726 39.5236C37.7566 39.5236 38.9595 38.3206 38.9595 36.8367Z" fill="black"/>
<path fill-rule="evenodd" clip-rule="evenodd" d="M27.2045 20.7153C27.2045 20.1588 27.6556 19.7077 28.212 19.7077C29.05 19.7077 29.8798 19.8728 30.6541 20.1935C31.4283 20.5142 32.1317 20.9842 32.7243 21.5768C33.3169 22.1693 33.7869 22.8728 34.1076 23.647C34.4283 24.4212 34.5934 25.251 34.5934 26.089C34.5934 26.6455 34.1422 27.0966 33.5858 27.0966C33.0293 27.0966 32.5782 26.6455 32.5782 26.089C32.5782 25.5157 32.4653 24.9479 32.2458 24.4182C32.0264 23.8884 31.7048 23.4071 31.2994 23.0017C30.8939 22.5963 30.4126 22.2746 29.8829 22.0552C29.3532 21.8358 28.7854 21.7229 28.212 21.7229C27.6556 21.7229 27.2045 21.2718 27.2045 20.7153Z" fill="black"/>
<path fill-rule="evenodd" clip-rule="evenodd" d="M27.2045 15.3416C27.2045 14.7851 27.6556 14.334 28.212 14.334C29.7557 14.334 31.2843 14.638 32.7105 15.2288C34.1367 15.8195 35.4326 16.6854 36.5241 17.777C37.6157 18.8685 38.4815 20.1644 39.0723 21.5906C39.663 23.0168 39.9671 24.5453 39.9671 26.089C39.9671 26.6455 39.516 27.0966 38.9595 27.0966C38.403 27.0966 37.9519 26.6455 37.9519 26.089C37.9519 24.81 37.7 23.5434 37.2105 22.3617C36.7211 21.18 36.0036 20.1063 35.0992 19.2019C34.1948 18.2974 33.121 17.58 31.9393 17.0905C30.7576 16.6011 29.4911 16.3491 28.212 16.3491C27.6556 16.3491 27.2045 15.898 27.2045 15.3416Z" fill="black"/>
</svg>
