<svg width="24" height="24" viewBox="0 0 24 24" fill="none" xmlns="http://www.w3.org/2000/svg">
<path d="M1 12.75V11.25H6.8V12.75H1ZM7.775 8.825L5.775 6.825L6.825 5.775L8.825 7.775L7.775 8.825ZM11.25 6.8V1H12.75V6.8H11.25ZM16.225 8.825L15.175 7.775L17.175 5.775L18.225 6.825L16.225 8.825ZM17.2 12.75V11.25H23V12.75H17.2ZM12 14.55C11.3 14.55 10.7 14.3 10.2 13.8C9.7 13.3 9.45 12.7 9.45 12C9.45 11.2833 9.7 10.6792 10.2 10.1875C10.7 9.69583 11.3 9.45 12 9.45C12.7167 9.45 13.3208 9.69583 13.8125 10.1875C14.3042 10.6792 14.55 11.2833 14.55 12C14.55 12.7 14.3042 13.3 13.8125 13.8C13.3208 14.3 12.7167 14.55 12 14.55ZM17.3 18.35L15.175 16.225L16.225 15.175L18.35 17.3L17.3 18.35ZM6.7 18.35L5.65 17.3L7.775 15.175L8.825 16.225L6.7 18.35ZM11.25 23V17.2H12.75V23H11.25Z" fill="#43C6B0"/>
</svg>
