<svg width="25" height="24" viewBox="0 0 25 24" fill="none" xmlns="http://www.w3.org/2000/svg">
<path d="M12.5 7.88989L11.4023 9.74989C11.1561 10.1599 11.3613 10.4999 11.8435 10.4999H13.1463C13.6387 10.4999 13.8336 10.8399 13.5874 11.2499L12.5 13.1099" stroke="#2968C6" stroke-width="1.3" stroke-linecap="round" stroke-linejoin="round"/>
<path d="M8.70429 18.0401V16.8801C6.34481 15.4901 4.40593 12.7801 4.40593 9.90005C4.40593 4.95005 9.0736 1.07005 14.3465 2.19005C16.665 2.69005 18.6962 4.19005 19.7528 6.26005C21.8969 10.4601 19.64 14.9201 16.3264 16.8701V18.0301C16.3264 18.3201 16.4393 18.9901 15.3416 18.9901H9.68912C8.56067 19.0001 8.70429 18.5701 8.70429 18.0401Z" stroke="#2968C6" stroke-width="1.3" stroke-linecap="round" stroke-linejoin="round"/>
<path d="M8.9095 22C11.2587 21.35 13.7413 21.35 16.0905 22" stroke="#2968C6" stroke-width="1.3" stroke-linecap="round" stroke-linejoin="round"/>
</svg>
