<svg width="32" height="33" viewBox="0 0 32 33" fill="none" xmlns="http://www.w3.org/2000/svg">
<g id="bank-line">
<path id="Vector" d="M2.66699 27.1667H29.3337V29.8334H2.66699V27.1667ZM5.33366 16.5001H8.00033V25.8334H5.33366V16.5001ZM12.0003 16.5001H14.667V25.8334H12.0003V16.5001ZM17.3337 16.5001H20.0003V25.8334H17.3337V16.5001ZM24.0003 16.5001H26.667V25.8334H24.0003V16.5001ZM2.66699 9.83341L16.0003 3.16675L29.3337 9.83341V15.1667H2.66699V9.83341ZM5.33366 11.4815V12.5001H26.667V11.4815L16.0003 6.14817L5.33366 11.4815ZM16.0003 11.1667C15.2639 11.1667 14.667 10.5698 14.667 9.83341C14.667 9.09704 15.2639 8.50008 16.0003 8.50008C16.7367 8.50008 17.3337 9.09704 17.3337 9.83341C17.3337 10.5698 16.7367 11.1667 16.0003 11.1667Z" fill="#4A86F3"/>
</g>
</svg>
