<svg width="141" height="141" viewBox="0 0 141 141" fill="none" xmlns="http://www.w3.org/2000/svg">
<g clip-path="url(#clip0_1639_7407)">
<mask id="mask0_1639_7407" style="mask-type:luminance" maskUnits="userSpaceOnUse" x="0" y="0" width="141" height="141">
<path d="M141 0H0V141H141V0Z" fill="white"/>
</mask>
<g mask="url(#mask0_1639_7407)">
<path d="M31.5234 99.5129L68.8466 121.063V92.3308L31.5234 70.7809V99.5129Z" fill="#C2013E"/>
<path d="M68.8477 92.3307V121.063L106.171 99.5129V70.782L68.8477 92.3307Z" fill="#F1372F"/>
<path d="M43.2529 106.285L53.0237 111.926V83.1922L43.2529 77.5599V106.285Z" fill="#FB802B"/>
<path d="M84.8666 83.0402V111.811L94.6374 106.17V77.4134L84.8666 83.0402Z" fill="#FB9C29"/>
<path d="M31.5234 71.3328L68.9777 92.3153L106.172 70.782L68.8466 50.9539L31.5234 71.3328Z" fill="#9B0031"/>
<path d="M29.0306 62.9345L29.0042 62.9201V72.8606L68.3332 95.5661L107.662 72.8606V62.9201L107.635 62.9345L68.3332 40.2764L29.0306 62.9345Z" fill="#FC865B"/>
<path d="M29.0042 72.8595L68.3343 95.566V85.6244L29.0042 62.919V72.8595Z" fill="#F1372F"/>
<path d="M68.3322 85.6244V95.5649L107.662 72.8595V62.919L68.3322 85.6244Z" fill="#FF522C"/>
<path d="M45.1024 53.667L84.3543 76.3284L94.1252 70.7016L54.8688 48.0358L45.1024 53.667Z" fill="#FFD700"/>
<path d="M42.7396 70.8161L52.5093 76.4429L91.7624 53.7816L81.9959 48.1504L42.7396 70.8161Z" fill="#FFD700"/>
<path d="M60.1013 61.5773L104.707 69.6231L102.439 64.0591L111.996 61.0199L67.3859 52.9741L60.1013 61.5773Z" fill="#ECC214"/>
<path d="M58.9677 57.8408L53.3333 102.819L59.0834 94.6044L63.7188 98.429L69.3522 53.4544L58.9677 57.8408Z" fill="#ECC214"/>
<path d="M85.0329 33.3894C77.0202 35.8184 72.2119 48.927 70.5144 54.0481C70.174 55.0726 70.3778 56.1973 71.0563 57.0367L72.6668 59.0272C73.3619 59.8886 74.4524 60.3204 75.5485 60.1761C79.9437 59.5989 91.2171 57.4299 95.9715 50.077C101.346 41.7657 94.2464 33.0546 87.3143 33.0546C86.5454 33.0546 85.7787 33.1636 85.0329 33.3894Z" fill="#FFD700"/>
<path d="M90.6619 43.9336C87.1336 45.8646 75.1222 58.949 75.1222 58.949C75.1222 58.949 80.1497 58.3035 83.8113 56.5112C87.4729 54.7201 93.6395 51.3251 94.8446 47.7648C95.7412 45.1145 94.9404 43.2165 93.016 43.2165C92.3561 43.2165 91.563 43.4412 90.6619 43.9336Z" fill="#DBA403"/>
<path d="M71.0265 49.6309C69.5813 50.2059 68.4412 51.1565 67.648 52.311C66.5916 53.8465 64.9393 54.8005 63.081 54.9459C61.6864 55.0572 60.2918 55.5694 59.0724 56.5322C56.4925 58.57 55.5914 62.1843 56.9001 65.1992C58.6868 69.3191 63.5888 70.8558 67.3616 68.6769C68.3817 68.0897 69.2057 67.2944 69.8137 66.3757C70.8007 64.8831 72.3936 63.9644 74.1803 63.8553C75.2797 63.787 76.3801 63.472 77.3991 62.8838C81.173 60.7038 82.2911 55.6917 79.6187 52.084C78.2142 50.1883 75.9715 49.1241 73.6879 49.1241C72.7912 49.1241 71.8891 49.2894 71.0265 49.6309Z" fill="#FCDF51"/>
<path d="M34.9471 66.4066C30.3657 72.7483 36.4948 84.8225 47.1689 82.1799C55.6686 80.077 61.3857 70.1211 63.3619 66.1543C63.8554 65.164 63.8014 63.9931 63.2143 63.0556L61.855 60.8845C61.2822 59.9702 60.2841 59.4117 59.2046 59.3996C58.8907 59.3951 58.5492 59.394 58.1824 59.394C52.2207 59.394 39.566 60.0142 34.9471 66.4066Z" fill="#FFD700"/>
<path d="M43.0876 75.1607C40.1134 77.8684 41.5906 80.3425 45.3491 80.3623C49.1087 80.3821 54.3235 75.6553 57.2096 72.7769C60.0946 69.8975 62.3407 65.3535 62.3407 65.3535C62.3407 65.3535 46.0607 72.452 43.0876 75.1607Z" fill="#DBA403"/>
</g>
</g>
<defs>
<clipPath id="clip0_1639_7407">
<rect width="141" height="141" fill="white"/>
</clipPath>
</defs>
</svg>
