<svg width="44" height="45" viewBox="0 0 44 45" fill="none" xmlns="http://www.w3.org/2000/svg">
<path d="M10.4741 10.8921H13.3486" stroke="black" stroke-width="2.8745" stroke-linecap="round" stroke-linejoin="round"/>
<path d="M16.2232 13.7665C15.4608 13.7665 14.7297 13.4637 14.1906 12.9246C13.6515 12.3855 13.3487 11.6544 13.3487 10.892C13.3487 10.1297 13.6515 9.39851 14.1906 8.85944C14.7297 8.32036 15.4608 8.01752 16.2232 8.01752C16.6006 8.01752 16.9744 8.09187 17.3232 8.23632C17.6719 8.38078 17.9888 8.59252 18.2557 8.85944C18.5227 9.12636 18.7344 9.44324 18.8788 9.79199C19.0233 10.1407 19.0977 10.5145 19.0977 10.892C19.0977 11.2695 19.0233 11.6433 18.8788 11.992C18.7344 12.3408 18.5227 12.6577 18.2557 12.9246C17.9888 13.1915 17.6719 13.4032 17.3232 13.5477C16.9744 13.6922 16.6006 13.7665 16.2232 13.7665Z" stroke="black" stroke-width="2.8745" stroke-linecap="round" stroke-linejoin="round"/>
<path d="M19.0977 10.8922L33.4701 10.8921" stroke="black" stroke-width="2.8745" stroke-linecap="round" stroke-linejoin="round"/>
<path d="M33.4702 22.39H30.5957" stroke="black" stroke-width="2.8745" stroke-linecap="round" stroke-linejoin="round"/>
<path d="M27.7212 25.2646C28.4835 25.2646 29.2147 24.9617 29.7538 24.4226C30.2928 23.8836 30.5957 23.1524 30.5957 22.3901C30.5957 21.6277 30.2928 20.8966 29.7538 20.3575C29.2147 19.8184 28.4835 19.5156 27.7212 19.5156C26.9588 19.5156 26.2277 19.8184 25.6886 20.3575C25.1495 20.8966 24.8467 21.6277 24.8467 22.3901C24.8467 23.1524 25.1495 23.8836 25.6886 24.4226C26.2277 24.9617 26.9588 25.2646 27.7212 25.2646Z" stroke="black" stroke-width="2.8745" stroke-linecap="round" stroke-linejoin="round"/>
<path d="M24.8466 22.3901L10.4741 22.39" stroke="black" stroke-width="2.8745" stroke-linecap="round" stroke-linejoin="round"/>
<path d="M10.4741 33.8879H13.3486" stroke="black" stroke-width="2.8745" stroke-linecap="round" stroke-linejoin="round"/>
<path d="M16.2232 36.7625C15.4608 36.7625 14.7297 36.4596 14.1906 35.9206C13.6515 35.3815 13.3487 34.6504 13.3487 33.888C13.3487 33.1256 13.6515 32.3945 14.1906 31.8554C14.7297 31.3163 15.4608 31.0135 16.2232 31.0135C16.6006 31.0135 16.9744 31.0878 17.3232 31.2323C17.6719 31.3768 17.9888 31.5885 18.2557 31.8554C18.5227 32.1223 18.7344 32.4392 18.8788 32.788C19.0233 33.1367 19.0977 33.5105 19.0977 33.888C19.0977 34.2655 19.0233 34.6393 18.8788 34.988C18.7344 35.3368 18.5227 35.6536 18.2557 35.9206C17.9888 36.1875 17.6719 36.3992 17.3232 36.5437C16.9744 36.6881 16.6006 36.7625 16.2232 36.7625Z" stroke="black" stroke-width="2.8745" stroke-linecap="round" stroke-linejoin="round"/>
<path d="M19.0977 33.888L33.4701 33.8879" stroke="black" stroke-width="2.8745" stroke-linecap="round" stroke-linejoin="round"/>
</svg>
