<svg width="36" height="37" viewBox="0 0 36 37" fill="none" xmlns="http://www.w3.org/2000/svg">
<path fill-rule="evenodd" clip-rule="evenodd" d="M9.99994 8.25839C10.74 7.76392 11.61 7.5 12.5 7.5C13.0714 7.5 13.5346 7.96322 13.5346 8.53464C13.5346 9.10606 13.0714 9.56928 12.5 9.56928C12.0193 9.56928 11.5493 9.71184 11.1496 9.97893C10.7498 10.246 10.4383 10.6256 10.2543 11.0698C10.0703 11.514 10.0222 12.0027 10.116 12.4742C10.2098 12.9457 10.4413 13.3788 10.7812 13.7188C11.1212 14.0587 11.5543 14.2902 12.0258 14.384C12.4973 14.4778 12.986 14.4297 13.4302 14.2457C13.8744 14.0617 14.254 13.7502 14.5211 13.3504C14.7882 12.9507 14.9307 12.4807 14.9307 12C14.9307 11.4286 15.3939 10.9654 15.9654 10.9654C16.5368 10.9654 17 11.4286 17 12C17 12.89 16.7361 13.76 16.2416 14.5001C15.7471 15.2401 15.0443 15.8169 14.2221 16.1575C13.3998 16.498 12.495 16.5872 11.6221 16.4135C10.7492 16.2399 9.94736 15.8113 9.31802 15.182C8.68868 14.5526 8.2601 13.7508 8.08647 12.8779C7.91283 12.005 8.00195 11.1002 8.34254 10.2779C8.68314 9.45566 9.25991 8.75285 9.99994 8.25839Z" fill="#8D98AA"/>
<path fill-rule="evenodd" clip-rule="evenodd" d="M34.9802 13.5C35.5434 13.5 36 13.9661 36 14.541V23.2574C36 27.7164 35.1375 31.1085 32.9439 33.3604C30.7489 35.6136 27.4407 36.5 23.094 36.5H12.906C8.56063 36.5 5.25258 35.614 3.05723 33.361C0.863226 31.1094 0 27.7173 0 23.2574V19.7528C0 19.1779 0.456559 18.7118 1.01975 18.7118C1.58295 18.7118 2.03951 19.1779 2.03951 19.7528V23.2574C2.03951 27.514 2.87587 30.2227 4.50321 31.8928C6.12922 33.5615 8.76429 34.4181 12.906 34.4181H23.094C27.2371 34.4181 29.8721 33.5611 31.4977 31.8923C33.1248 30.2221 33.9605 27.5134 33.9605 23.2574V14.541C33.9605 13.9661 34.4171 13.5 34.9802 13.5Z" fill="#8D98AA"/>
<path fill-rule="evenodd" clip-rule="evenodd" d="M3.09967 3.57527C5.32422 1.36823 8.6763 0.5 13.0827 0.5H19.9716C20.5396 0.5 21 0.956808 21 1.52031C21 2.08381 20.5396 2.54062 19.9716 2.54062H13.0827C8.87924 2.54062 6.20419 3.38106 4.55405 5.01821C2.90392 6.65535 2.05681 9.30935 2.05681 13.4797C2.05681 14.0432 1.59638 14.5 1.0284 14.5C0.460432 14.5 0 14.0432 0 13.4797C0 9.10801 0.875122 5.78231 3.09967 3.57527Z" fill="#8D98AA"/>
<path fill-rule="evenodd" clip-rule="evenodd" d="M23 6.5C23 5.94772 23.4792 5.5 24.0704 5.5H33.9296C34.5208 5.5 35 5.94772 35 6.5C35 7.05228 34.5208 7.5 33.9296 7.5H24.0704C23.4792 7.5 23 7.05228 23 6.5Z" fill="#8D98AA"/>
<path fill-rule="evenodd" clip-rule="evenodd" d="M29 0.5C29.5523 0.5 30 0.979239 30 1.57041V11.4296C30 12.0208 29.5523 12.5 29 12.5C28.4477 12.5 28 12.0208 28 11.4296V1.57041C28 0.979239 28.4477 0.5 29 0.5Z" fill="#8D98AA"/>
<path fill-rule="evenodd" clip-rule="evenodd" d="M28.0496 20.175L20.9723 26.3014L20.9535 26.3173C20.0931 27.0267 19.0135 27.4145 17.8993 27.4145C16.7851 27.4145 15.7055 27.0267 14.8451 26.3173C14.8358 26.3096 14.8267 26.3018 14.8177 26.2939L14.2713 25.8101C13.8139 25.441 13.2519 25.2253 12.6651 25.194C12.0746 25.1624 11.4894 25.3191 10.9934 25.6414L2.59721 31.3241C2.12855 31.6413 1.49204 31.5177 1.17551 31.0481C0.858988 30.5784 0.982315 29.9405 1.45097 29.6233L9.86814 23.9264C10.7295 23.3634 11.7473 23.0897 12.7741 23.1445C13.801 23.1994 14.7839 23.5802 15.5806 24.2318C15.5909 24.2402 15.6011 24.2489 15.6111 24.2578L16.1591 24.7429C16.6508 25.1434 17.2653 25.3622 17.8993 25.3622C18.5351 25.3622 19.1512 25.1422 19.6436 24.7396L26.7209 18.6131L26.7397 18.5972C27.6002 17.8878 28.6797 17.5 29.7939 17.5C30.9081 17.5 31.9877 17.8878 32.8481 18.5972L32.867 18.6132L35.6454 21.0185C36.0734 21.389 36.1206 22.037 35.7509 22.4659C35.3812 22.8947 34.7345 22.9421 34.3066 22.5716L31.5382 20.1749C31.0458 19.7723 30.4297 19.5523 29.7939 19.5523C29.1582 19.5523 28.5421 19.7723 28.0496 20.175Z" fill="#8D98AA"/>
</svg>
