<svg width="43" height="43" viewBox="0 0 43 43" fill="none" xmlns="http://www.w3.org/2000/svg">
<path d="M11.193 38.9195C10.2317 38.9195 9.40844 38.5769 8.72327 37.8917C8.03811 37.2066 7.6961 36.3839 7.69727 35.4237V7.45762C7.69727 6.49628 8.03985 5.67303 8.72502 4.98786C9.41019 4.30269 10.2329 3.96069 11.193 3.96186H32.1676C33.1289 3.96186 33.9522 4.30444 34.6374 4.98961C35.3225 5.67478 35.6645 6.49745 35.6634 7.45762V35.4237C35.6634 36.3851 35.3208 37.2083 34.6356 37.8935C33.9504 38.5786 33.1278 38.9207 32.1676 38.9195H11.193ZM21.6803 33.6758C24.0982 33.6758 26.1596 32.8235 27.8643 31.1187C29.5691 29.4139 30.4209 27.3532 30.4197 24.9364C30.4197 22.5185 29.5673 20.4572 27.8626 18.7524C26.1578 17.0477 24.0971 16.1959 21.6803 16.197C19.2624 16.197 17.2011 17.0494 15.4963 18.7542C13.7915 20.4589 12.9397 22.5197 12.9409 24.9364C12.9409 27.3543 13.7933 29.4157 15.4981 31.1204C17.2028 32.8252 19.2636 33.677 21.6803 33.6758ZM21.6803 30.7044C20.9229 30.7044 20.187 30.5658 19.4727 30.2884C18.7584 30.0111 18.1251 29.5963 17.5728 29.044L25.7878 20.8289C26.3413 21.3824 26.7568 22.0163 27.0341 22.7306C27.3114 23.4449 27.4495 24.1802 27.4483 24.9364C27.4483 26.5387 26.8873 27.9003 25.7651 29.0212C24.643 30.1422 23.2814 30.7033 21.6803 30.7044ZM14.6888 12.7013C15.184 12.7013 15.5994 12.5335 15.935 12.1979C16.2706 11.8623 16.4378 11.4474 16.4367 10.9534C16.4367 10.4581 16.2689 10.0427 15.9333 9.70714C15.5977 9.37155 15.1829 9.20433 14.6888 9.2055C14.1936 9.2055 13.7781 9.3733 13.4426 9.70889C13.107 10.0445 12.9397 10.4593 12.9409 10.9534C12.9409 11.4486 13.1087 11.864 13.4443 12.1996C13.7799 12.5352 14.1947 12.7024 14.6888 12.7013ZM19.9324 12.7013C20.4277 12.7013 20.8431 12.5335 21.1787 12.1979C21.5143 11.8623 21.6815 11.4474 21.6803 10.9534C21.6803 10.4581 21.5125 10.0427 21.1769 9.70714C20.8413 9.37155 20.4265 9.20433 19.9324 9.2055C19.4372 9.2055 19.0218 9.3733 18.6862 9.70889C18.3506 10.0445 18.1834 10.4593 18.1846 10.9534C18.1846 11.4486 18.3524 11.864 18.6879 12.1996C19.0235 12.5352 19.4384 12.7024 19.9324 12.7013Z" fill="black"/>
</svg>
