<svg width="64" height="64" viewBox="0 0 64 64" fill="none" xmlns="http://www.w3.org/2000/svg">
<g id="Mail" clip-path="url(#clip0_215_7435)">
<path id="Vector" d="M62.743 24.143L54 20.646V2C54 1.46957 53.7893 0.960859 53.4142 0.585786C53.0391 0.210714 52.5304 0 52 0L12 0C11.4696 0 10.9609 0.210714 10.5858 0.585786C10.2107 0.960859 10 1.46957 10 2V20.646L1.257 24.143C0.886279 24.2918 0.568613 24.5482 0.344934 24.8792C0.121255 25.2102 0.00181314 25.6005 0.002 26H0V62C0 62.5304 0.210714 63.0391 0.585786 63.4142C0.960859 63.7893 1.46957 64 2 64H62C62.5304 64 63.0391 63.7893 63.4142 63.4142C63.7893 63.0391 64 62.5304 64 62V26H63.998C63.9982 25.6005 63.8787 25.2102 63.6551 24.8792C63.4314 24.5482 63.1137 24.2918 62.743 24.143ZM57.954 26.536L54 28.991V24.955L57.954 26.536ZM50 4V31.474L32 42.646L14 31.474V4H50ZM10 28.991L6.046 26.536L10 24.955V28.991ZM4 60V29.975L30.945 46.7C31.2621 46.8959 31.6274 46.9995 32.0001 46.9993C32.3728 46.9992 32.7381 46.8952 33.055 46.699L60 29.975V60H4Z" fill="#266EF1"/>
<path id="Vector_2" d="M36 12H44C44.5304 12 45.0391 11.7893 45.4142 11.4142C45.7893 11.0391 46 10.5304 46 10C46 9.46957 45.7893 8.96086 45.4142 8.58579C45.0391 8.21071 44.5304 8 44 8H36C35.4696 8 34.9609 8.21071 34.5858 8.58579C34.2107 8.96086 34 9.46957 34 10C34 10.5304 34.2107 11.0391 34.5858 11.4142C34.9609 11.7893 35.4696 12 36 12ZM20 20H44C44.5304 20 45.0391 19.7893 45.4142 19.4142C45.7893 19.0391 46 18.5304 46 18C46 17.4696 45.7893 16.9609 45.4142 16.5858C45.0391 16.2107 44.5304 16 44 16H20C19.4696 16 18.9609 16.2107 18.5858 16.5858C18.2107 16.9609 18 17.4696 18 18C18 18.5304 18.2107 19.0391 18.5858 19.4142C18.9609 19.7893 19.4696 20 20 20ZM20 28H44C44.5304 28 45.0391 27.7893 45.4142 27.4142C45.7893 27.0391 46 26.5304 46 26C46 25.4696 45.7893 24.9609 45.4142 24.5858C45.0391 24.2107 44.5304 24 44 24H20C19.4696 24 18.9609 24.2107 18.5858 24.5858C18.2107 24.9609 18 25.4696 18 26C18 26.5304 18.2107 27.0391 18.5858 27.4142C18.9609 27.7893 19.4696 28 20 28Z" fill="#D4E2FC"/>
</g>
<defs>
<clipPath id="clip0_215_7435">
<rect width="64" height="64" fill="white"/>
</clipPath>
</defs>
</svg>
