<svg width="32" height="33" viewBox="0 0 32 33" fill="none" xmlns="http://www.w3.org/2000/svg">
<path d="M30.8281 4.22648C30.6121 3.74212 30.2127 3.36323 29.7177 3.17293C29.2227 2.98262 28.6723 2.99644 28.1875 3.21135L11.7877 10.4999H6.99999C5.43116 10.4999 3.92472 11.1143 2.80346 12.2116C1.6822 13.3089 1.03531 14.8017 1.0014 16.3701C0.967497 17.9386 1.54927 19.4579 2.62207 20.6026C3.69487 21.7473 5.17334 22.4263 6.74071 22.4941L11 22.498V29.4999H13V23.0382L28.1885 29.789C28.493 29.9241 28.8264 29.981 29.1585 29.9545C29.4906 29.9281 29.8108 29.8191 30.0901 29.6375C30.3694 29.4559 30.5989 29.2074 30.7578 28.9146C30.9167 28.6218 30.9999 28.294 31 27.9609V5.03849C30.9995 4.75884 30.941 4.48233 30.8281 4.22648ZM6.8164 20.496C5.77255 20.448 4.78894 19.9934 4.07596 19.2294C3.36297 18.4655 2.97721 17.4529 3.0012 16.4083C3.02519 15.3636 3.45701 14.3698 4.2043 13.6394C4.9516 12.909 5.95503 12.5 6.99999 12.4999H11V20.4999H7.02245L6.8164 20.496ZM29 27.9609L13 20.8505V12.1498L29 5.03849V27.9609Z" fill="#222222"/>
</svg>
