<svg width="43" height="43" viewBox="0 0 43 43" fill="none" xmlns="http://www.w3.org/2000/svg">
<path d="M5.72867 30.1801H12.895C12.3998 29.6849 11.9412 29.1459 11.5194 28.5633C11.0976 27.9807 10.7259 27.3544 10.4043 26.6843H5.72867V30.1801ZM21.4596 30.1801C23.8775 30.1801 25.9388 29.3277 27.6436 27.6229C29.3484 25.9182 30.2002 23.8574 30.199 21.4407C30.199 19.0228 29.3466 16.9615 27.6419 15.2567C25.9371 13.5519 23.8763 12.7001 21.4596 12.7013C19.0417 12.7013 16.9804 13.5537 15.2756 15.2584C13.5708 16.9632 12.719 19.024 12.7202 21.4407C12.7202 23.8586 13.5726 25.9199 15.2773 27.6247C16.9821 29.3295 19.0429 30.1813 21.4596 30.1801ZM32.515 16.197H37.1905V12.7013H30.0242C30.5195 13.1965 30.9786 13.7354 31.4016 14.3181C31.8245 14.9007 32.1957 15.527 32.515 16.197ZM2.23291 35.4237V21.4407H5.72867V23.1886H9.35553C9.29726 22.8973 9.26056 22.6129 9.24541 22.3356C9.23026 22.0583 9.22327 21.76 9.22444 21.4407C9.22444 18.0323 10.4118 15.1407 12.7866 12.766C15.1614 10.3912 18.0524 9.20436 21.4596 9.20552H37.1905V7.45764H40.6863V21.4407H37.1905V19.6928H33.5637C33.6219 19.9841 33.6587 20.2684 33.6738 20.5458C33.6889 20.8231 33.6959 21.1214 33.6948 21.4407C33.6948 24.8491 32.5074 27.7406 30.1326 30.1154C27.7578 32.4902 24.8668 33.677 21.4596 33.6759H5.72867V35.4237H2.23291ZM21.4596 26.6843C20.4983 26.6843 19.675 26.3418 18.9898 25.6566C18.3047 24.9714 17.9627 24.1487 17.9638 23.1886C17.9638 22.5186 18.1025 21.8561 18.3798 21.2012C18.6572 20.5464 19.1885 19.6066 19.9739 18.3819L21.4596 16.197L22.9453 18.3819C23.7319 19.6054 24.2638 20.5452 24.5411 21.2012C24.8184 21.8573 24.9565 22.5197 24.9554 23.1886C24.9554 24.1499 24.6128 24.9732 23.9276 25.6583C23.2424 26.3435 22.4198 26.6855 21.4596 26.6843Z" fill="black"/>
</svg>
