<svg width="32" height="33" viewBox="0 0 32 33" fill="none" xmlns="http://www.w3.org/2000/svg">
<path d="M29 5.5C30.0544 5.5 30.9182 6.31588 30.9945 7.35074L31 7.5V25.5C31 26.5544 30.1841 27.4182 29.1493 27.4945L29 27.5H3C1.94564 27.5 1.08183 26.6841 1.00549 25.6493L1 25.5V7.5C1 6.44564 1.81588 5.58183 2.85074 5.50549L3 5.5H29ZM29 7.5H3V25.5H29V7.5ZM26 19.5V21.5H18V19.5H26ZM10 11.5C11.6569 11.5 13 12.8431 13 14.5C13 15.1168 12.8139 15.6901 12.4947 16.1668C13.9919 17.0293 15 18.6469 15 20.5H13C13 19.1941 12.1656 18.0831 11.0009 17.671L11 14.5C11 13.9477 10.5523 13.5 10 13.5C9.48716 13.5 9.06449 13.886 9.00673 14.3834L9 14.5L9.00009 17.6707C7.83485 18.0825 7 19.1937 7 20.5H5C5 18.6469 6.00806 17.0293 7.50571 16.1656C7.18613 15.6901 7 15.1168 7 14.5C7 12.8431 8.34315 11.5 10 11.5ZM26 15.5V17.5H18V15.5H26ZM26 11.5V13.5H18V11.5H26Z" fill="#222222"/>
</svg>
