<svg width="20" height="20" viewBox="0 0 20 20" fill="none" xmlns="http://www.w3.org/2000/svg">
<g id="Bank-line">
<path id="Vector" d="M1.66602 16.6667H18.3327V18.3334H1.66602V16.6667ZM3.33268 10.0001H4.99935V15.8334H3.33268V10.0001ZM7.49935 10.0001H9.16602V15.8334H7.49935V10.0001ZM10.8327 10.0001H12.4993V15.8334H10.8327V10.0001ZM14.9993 10.0001H16.666V15.8334H14.9993V10.0001ZM1.66602 5.83341L9.99935 1.66675L18.3327 5.83341V9.16675H1.66602V5.83341ZM3.33268 6.86347V7.50008H16.666V6.86347L9.99935 3.53014L3.33268 6.86347ZM9.99935 6.66675C9.5391 6.66675 9.16602 6.29365 9.16602 5.83341C9.16602 5.37318 9.5391 5.00008 9.99935 5.00008C10.4596 5.00008 10.8327 5.37318 10.8327 5.83341C10.8327 6.29365 10.4596 6.66675 9.99935 6.66675Z" fill="#266EF1"/>
</g>
</svg>
