<svg width="37" height="37" viewBox="0 0 37 37" fill="none" xmlns="http://www.w3.org/2000/svg">
<path d="M0.496399 18.7147C0.496399 8.73963 8.58564 0.650391 18.5607 0.650391C28.5357 0.650391 36.6249 8.73963 36.6249 18.7147C36.6249 28.6897 28.5357 36.7789 18.5607 36.7789C8.58564 36.7789 0.496399 28.6897 0.496399 18.7147Z" fill="#6200EE"/>
<path d="M28.4265 15.6932H21.5459V8.85627C21.5459 8.56502 21.3129 8.33203 21.0217 8.33203H16.0633C15.772 8.33203 15.5391 8.56502 15.5391 8.85627V15.6932H8.70215C8.41091 15.6932 8.17792 15.9262 8.17792 16.2174V21.2559C8.17792 21.5471 8.41091 21.7801 8.70215 21.7801H15.5391V28.5806C15.5391 28.8719 15.772 29.1049 16.0633 29.1049H21.0217C21.3129 29.1049 21.5459 28.8719 21.5459 28.5806V21.7801H28.4265C28.7177 21.7801 28.9507 21.5471 28.9507 21.2559V16.2174C28.9507 15.9262 28.7105 15.6932 28.4265 15.6932Z" fill="white"/>
</svg>
