<svg width="122" height="122" viewBox="0 0 122 122" fill="none" xmlns="http://www.w3.org/2000/svg">
<path d="M61 121.444C94.3825 121.444 121.444 94.3817 121.444 60.9991C121.444 27.6166 94.3825 0.554688 61 0.554688C27.6174 0.554688 0.555542 27.6166 0.555542 60.9991C0.555542 94.3817 27.6174 121.444 61 121.444Z" fill="#58A388"/>
<path d="M60.9999 113.208C89.8333 113.208 113.207 89.8338 113.207 61.0004C113.207 32.167 89.8333 8.79297 60.9999 8.79297C32.1665 8.79297 8.79248 32.167 8.79248 61.0004C8.79248 89.8338 32.1665 113.208 60.9999 113.208Z" fill="#B5E1D1"/>
<path d="M54.3646 80.1104L38.1692 63.9149L43.9988 58.0854L54.3646 68.4512L78.0112 44.8047L83.8408 50.6343L54.3646 80.1104Z" fill="#356252"/>
</svg>
