<svg width="62" height="61" viewBox="0 0 62 61" fill="none" xmlns="http://www.w3.org/2000/svg">
<path d="M56.204 30.2099C56.204 44.1064 44.9257 55.3847 31.0292 55.3847C17.1327 55.3847 5.85443 44.1064 5.85443 30.2099C5.85443 16.3134 17.1327 5.03516 31.0292 5.03516" stroke="white" stroke-width="3.77621" stroke-linecap="round" stroke-linejoin="round"/>
<path d="M56.204 15.105V5.03508H46.1341" stroke="#6862C2" stroke-width="3.77621" stroke-linecap="round" stroke-linejoin="round"/>
<path d="M56.204 5.03516L43.6166 17.6225" stroke="#6862C2" stroke-width="3.77621" stroke-linecap="round" stroke-linejoin="round"/>
<path d="M25.887 39.0352V31.5734H24.1349V29.3378H25.887V27.1627H24.1349V24.9272H25.887V17.4654H30.63L32.9863 24.9272H35.7354V17.4654H39.0887V24.9272H40.8106V27.1627H39.0887V29.3378H40.8106V31.5734H39.0887V39.0352H34.3156L31.8988 31.5734H29.2403V39.0352H25.887ZM29.1195 24.9272H29.9654L29.0893 22.0271H28.9684L29.1195 24.9272ZM29.2403 29.3378H31.2342L30.5696 27.1627H29.1799L29.2403 29.3378ZM34.4062 29.3378H35.7958L35.7354 27.1627H33.7114L34.4062 29.3378ZM35.826 34.3224H35.9771L35.8563 31.5734H35.0406L35.826 34.3224Z" fill="white"/>
</svg>
