<svg width="33" height="32" viewBox="0 0 33 32" fill="none" xmlns="http://www.w3.org/2000/svg">
<g id="assignment_add">
<mask id="mask0_1672_343" style="mask-type:alpha" maskUnits="userSpaceOnUse" x="0" y="0" width="33" height="32">
<rect id="Bounding box" x="0.5" width="32" height="32" fill="white"/>
</mask>
<g mask="url(#mask0_1672_343)">
<path id="assignment_add_2" d="M7.16667 28C6.43333 28 5.80556 27.7389 5.28333 27.2166C4.76111 26.6944 4.5 26.0666 4.5 25.3333V6.66665C4.5 5.93331 4.76111 5.30554 5.28333 4.78331C5.80556 4.26109 6.43333 3.99998 7.16667 3.99998H12.7667C13.0556 3.19998 13.5389 2.55554 14.2167 2.06665C14.8944 1.57776 15.6556 1.33331 16.5 1.33331C17.3444 1.33331 18.1056 1.57776 18.7833 2.06665C19.4611 2.55554 19.9444 3.19998 20.2333 3.99998H25.8333C26.5667 3.99998 27.1944 4.26109 27.7167 4.78331C28.2389 5.30554 28.5 5.93331 28.5 6.66665V15.6C28.0778 15.4 27.6444 15.2278 27.2 15.0833C26.7556 14.9389 26.3 14.8333 25.8333 14.7666V6.66665H7.16667V25.3333H15.2333C15.3 25.8222 15.4056 26.2889 15.55 26.7333C15.6944 27.1778 15.8667 27.6 16.0667 28H7.16667ZM7.16667 25.3333V6.66665V14.7666V14.6666V25.3333ZM11.1667 22.6666H15.2667C15.3333 22.2 15.4389 21.7444 15.5833 21.3C15.7278 20.8555 15.8889 20.4222 16.0667 20H11.1667C10.7889 20 10.4722 20.1278 10.2167 20.3833C9.96111 20.6389 9.83333 20.9555 9.83333 21.3333C9.83333 21.7111 9.96111 22.0278 10.2167 22.2833C10.4722 22.5389 10.7889 22.6666 11.1667 22.6666ZM11.1667 17.3333H17.9667C18.6778 16.6666 19.4722 16.1111 20.35 15.6666C21.2278 15.2222 22.1667 14.9222 23.1667 14.7666V14.6666H11.1667C10.7889 14.6666 10.4722 14.7944 10.2167 15.05C9.96111 15.3055 9.83333 15.6222 9.83333 16C9.83333 16.3778 9.96111 16.6944 10.2167 16.95C10.4722 17.2055 10.7889 17.3333 11.1667 17.3333ZM11.1667 12H21.8333C22.2111 12 22.5278 11.8722 22.7833 11.6166C23.0389 11.3611 23.1667 11.0444 23.1667 10.6666C23.1667 10.2889 23.0389 9.9722 22.7833 9.71665C22.5278 9.46109 22.2111 9.33331 21.8333 9.33331H11.1667C10.7889 9.33331 10.4722 9.46109 10.2167 9.71665C9.96111 9.9722 9.83333 10.2889 9.83333 10.6666C9.83333 11.0444 9.96111 11.3611 10.2167 11.6166C10.4722 11.8722 10.7889 12 11.1667 12ZM16.5 5.66665C16.7889 5.66665 17.0278 5.5722 17.2167 5.38331C17.4056 5.19442 17.5 4.95554 17.5 4.66665C17.5 4.37776 17.4056 4.13887 17.2167 3.94998C17.0278 3.76109 16.7889 3.66665 16.5 3.66665C16.2111 3.66665 15.9722 3.76109 15.7833 3.94998C15.5944 4.13887 15.5 4.37776 15.5 4.66665C15.5 4.95554 15.5944 5.19442 15.7833 5.38331C15.9722 5.5722 16.2111 5.66665 16.5 5.66665ZM24.5 30.6666C22.6556 30.6666 21.0833 30.0166 19.7833 28.7166C18.4833 27.4166 17.8333 25.8444 17.8333 24C17.8333 22.1555 18.4833 20.5833 19.7833 19.2833C21.0833 17.9833 22.6556 17.3333 24.5 17.3333C26.3444 17.3333 27.9167 17.9833 29.2167 19.2833C30.5167 20.5833 31.1667 22.1555 31.1667 24C31.1667 25.8444 30.5167 27.4166 29.2167 28.7166C27.9167 30.0166 26.3444 30.6666 24.5 30.6666ZM23.8333 24.6666V27.3333C23.8333 27.5111 23.9 27.6666 24.0333 27.8C24.1667 27.9333 24.3222 28 24.5 28C24.6778 28 24.8333 27.9333 24.9667 27.8C25.1 27.6666 25.1667 27.5111 25.1667 27.3333V24.6666H27.8333C28.0111 24.6666 28.1667 24.6 28.3 24.4666C28.4333 24.3333 28.5 24.1778 28.5 24C28.5 23.8222 28.4333 23.6666 28.3 23.5333C28.1667 23.4 28.0111 23.3333 27.8333 23.3333H25.1667V20.6666C25.1667 20.4889 25.1 20.3333 24.9667 20.2C24.8333 20.0666 24.6778 20 24.5 20C24.3222 20 24.1667 20.0666 24.0333 20.2C23.9 20.3333 23.8333 20.4889 23.8333 20.6666V23.3333H21.1667C20.9889 23.3333 20.8333 23.4 20.7 23.5333C20.5667 23.6666 20.5 23.8222 20.5 24C20.5 24.1778 20.5667 24.3333 20.7 24.4666C20.8333 24.6 20.9889 24.6666 21.1667 24.6666H23.8333Z" fill="white"/>
</g>
</g>
</svg>
