<svg width="33" height="32" viewBox="0 0 33 32" fill="none" xmlns="http://www.w3.org/2000/svg">
<g clip-path="url(#clip0_1672_378)">
<path d="M4.5 16C4.5 17.5759 4.81039 19.1363 5.41345 20.5922C6.0165 22.0481 6.90042 23.371 8.01472 24.4853C9.12902 25.5996 10.4519 26.4835 11.9078 27.0866C13.3637 27.6896 14.9241 28 16.5 28C18.0759 28 19.6363 27.6896 21.0922 27.0866C22.5481 26.4835 23.871 25.5996 24.9853 24.4853C26.0996 23.371 26.9835 22.0481 27.5866 20.5922C28.1896 19.1363 28.5 17.5759 28.5 16C28.5 12.8174 27.2357 9.76516 24.9853 7.51472C22.7348 5.26428 19.6826 4 16.5 4C13.3174 4 10.2652 5.26428 8.01472 7.51472C5.76428 9.76516 4.5 12.8174 4.5 16Z" stroke="white" stroke-width="2.5" stroke-linecap="round" stroke-linejoin="round"/>
<path d="M16.5 12H16.5142" stroke="white" stroke-width="2.5" stroke-linecap="round" stroke-linejoin="round"/>
<path d="M15.1667 16H16.5V21.3333H17.8334" stroke="white" stroke-width="2.5" stroke-linecap="round" stroke-linejoin="round"/>
</g>
<defs>
<clipPath id="clip0_1672_378">
<rect width="32" height="32" fill="white" transform="translate(0.5)"/>
</clipPath>
</defs>
</svg>
