<svg width="33" height="32" viewBox="0 0 33 32" fill="none" xmlns="http://www.w3.org/2000/svg">
<g clip-path="url(#clip0_1672_392)">
<path d="M11.1667 12H21.8334" stroke="white" stroke-width="2.5" stroke-linecap="round" stroke-linejoin="round"/>
<path d="M11.1667 17.3334H19.1667" stroke="white" stroke-width="2.5" stroke-linecap="round" stroke-linejoin="round"/>
<path d="M24.5 5.33337C25.5609 5.33337 26.5783 5.7548 27.3284 6.50495C28.0786 7.25509 28.5 8.27251 28.5 9.33337V20C28.5 21.0609 28.0786 22.0783 27.3284 22.8285C26.5783 23.5786 25.5609 24 24.5 24H17.8333L11.1667 28V24H8.5C7.43913 24 6.42172 23.5786 5.67157 22.8285C4.92143 22.0783 4.5 21.0609 4.5 20V9.33337C4.5 8.27251 4.92143 7.25509 5.67157 6.50495C6.42172 5.7548 7.43913 5.33337 8.5 5.33337H24.5Z" stroke="white" stroke-width="2.5" stroke-linecap="round" stroke-linejoin="round"/>
</g>
<defs>
<clipPath id="clip0_1672_392">
<rect width="32" height="32" fill="white" transform="translate(0.5)"/>
</clipPath>
</defs>
</svg>
