<svg width="24" height="24" viewBox="0 0 24 24" fill="none" xmlns="http://www.w3.org/2000/svg">
<g id="Flutterwave">
<g id="Group 17">
<path id="Vector" d="M2 7.64036C2 6.56132 2.31131 5.64006 2.96444 4.97778L4.10047 6.12938C2.83596 7.40653 3.94059 11.3772 7.54068 15.0306C11.1407 18.6834 15.0601 19.8014 16.3239 18.5221L17.4599 19.6737C15.3286 21.8342 10.4737 20.3012 6.41055 16.1811C3.59167 13.3224 2 10.0793 2 7.64046V7.64036Z" fill="#009A46"/>
<path id="Vector_2" d="M9.16489 20.6664C8.10033 20.6664 7.19152 20.3509 6.53711 19.6888L7.67315 18.5371C8.9352 19.8165 12.8522 18.6973 16.4559 15.0451C20.0593 11.3933 21.1617 7.42261 19.8995 6.14327L21.0355 4.99167C23.168 7.15215 21.6544 12.073 17.5894 16.1924C14.77 19.0541 11.5707 20.6664 9.16479 20.6664H9.16489Z" fill="#FF5805"/>
<path id="Vector_3" d="M17.9642 14.5441C17.2744 12.5312 15.8661 10.3803 13.9969 8.48675C9.93308 4.36599 5.07871 2.83215 2.94742 4.99403C2.79659 5.14822 2.92724 5.52966 3.24091 5.84683C3.55448 6.16479 3.93027 6.29613 4.08169 6.14323C5.34502 4.86379 9.26203 5.98305 12.8643 9.63585C14.5684 11.3633 15.8388 13.2923 16.4506 15.0774C16.9873 16.6428 16.9346 17.9049 16.3098 18.5383C16.1578 18.6911 16.2897 19.0739 16.6021 19.3905C16.9146 19.7072 17.2915 19.8404 17.4442 19.6862C18.5359 18.5795 18.721 16.7507 17.9642 14.544V14.5441Z" fill="#F5AFCB"/>
<path id="Vector_4" d="M21.0325 4.99404C19.9386 3.88495 18.1367 3.69713 15.9575 4.46489C13.973 5.1631 11.8498 6.59244 9.98191 8.48556C5.91801 12.605 4.4052 17.5258 6.53639 19.6876C6.68849 19.8405 7.06478 19.7086 7.37776 19.3918C7.69133 19.0752 7.82207 18.6926 7.67006 18.5384C6.40446 17.2589 7.51205 13.2882 11.1157 9.63466C12.8198 7.90721 14.7226 6.61999 16.4836 5.99923C18.0278 5.45701 19.2728 5.50861 19.8989 6.14204C20.0497 6.29494 20.4272 6.1631 20.7398 5.84523C21.0521 5.52717 21.1835 5.14703 21.0326 4.99414L21.0325 4.99404Z" fill="#FF9B00"/>
</g>
</g>
</svg>
