<svg width="33" height="32" viewBox="0 0 33 32" fill="none" xmlns="http://www.w3.org/2000/svg">
<g id="folder_special">
<mask id="mask0_1672_348" style="mask-type:alpha" maskUnits="userSpaceOnUse" x="0" y="0" width="33" height="32">
<rect id="Bounding box" x="0.5" width="32" height="32" fill="white"/>
</mask>
<g mask="url(#mask0_1672_348)">
<path id="folder_special_2" d="M5.83335 26.6666C5.10002 26.6666 4.47224 26.4055 3.95002 25.8833C3.4278 25.3611 3.16669 24.7333 3.16669 24V7.99998C3.16669 7.26665 3.4278 6.63887 3.95002 6.11665C4.47224 5.59442 5.10002 5.33331 5.83335 5.33331H12.7334C13.0889 5.33331 13.4278 5.39998 13.75 5.53331C14.0722 5.66665 14.3556 5.85554 14.6 6.09998L16.5 7.99998H27.1667C27.9 7.99998 28.5278 8.26109 29.05 8.78331C29.5722 9.30554 29.8334 9.93331 29.8334 10.6666V24C29.8334 24.7333 29.5722 25.3611 29.05 25.8833C28.5278 26.4055 27.9 26.6666 27.1667 26.6666H5.83335ZM5.83335 24H27.1667V10.6666H15.4L12.7334 7.99998H5.83335V24ZM20.3667 19.9333L22.6334 21.6333C22.7667 21.7444 22.8945 21.7555 23.0167 21.6666C23.1389 21.5778 23.1778 21.4555 23.1334 21.3L22.3 18.4666L24.6334 16.6C24.7445 16.4889 24.7778 16.3611 24.7334 16.2166C24.6889 16.0722 24.5889 16 24.4334 16H21.5667L20.7 13.2666C20.6556 13.1111 20.5445 13.0333 20.3667 13.0333C20.1889 13.0333 20.0778 13.1111 20.0334 13.2666L19.1667 16H16.3C16.1445 16 16.0445 16.0722 16 16.2166C15.9556 16.3611 15.9889 16.4889 16.1 16.6L18.4334 18.4666L17.6 21.3C17.5556 21.4555 17.5945 21.5778 17.7167 21.6666C17.8389 21.7555 17.9667 21.7444 18.1 21.6333L20.3667 19.9333Z" fill="white"/>
</g>
</g>
</svg>
