<svg width="33" height="32" viewBox="0 0 33 32" fill="none" xmlns="http://www.w3.org/2000/svg">
<g id="home">
<mask id="mask0_1672_338" style="mask-type:alpha" maskUnits="userSpaceOnUse" x="0" y="0" width="33" height="32">
<rect id="Bounding box" x="0.5" width="32" height="32" fill="#D9D9D9"/>
</mask>
<g mask="url(#mask0_1672_338)">
<path id="home_2" d="M8.49998 25.3334H12.5V18.6667C12.5 18.2889 12.6278 17.9722 12.8833 17.7167C13.1389 17.4611 13.4555 17.3334 13.8333 17.3334H19.1666C19.5444 17.3334 19.8611 17.4611 20.1166 17.7167C20.3722 17.9722 20.5 18.2889 20.5 18.6667V25.3334H24.5V13.3334L16.5 7.33335L8.49998 13.3334V25.3334ZM5.83331 25.3334V13.3334C5.83331 12.9111 5.92776 12.5111 6.11665 12.1334C6.30554 11.7556 6.56665 11.4445 6.89998 11.2L14.9 5.20002C15.3666 4.84446 15.9 4.66669 16.5 4.66669C17.1 4.66669 17.6333 4.84446 18.1 5.20002L26.1 11.2C26.4333 11.4445 26.6944 11.7556 26.8833 12.1334C27.0722 12.5111 27.1666 12.9111 27.1666 13.3334V25.3334C27.1666 26.0667 26.9055 26.6945 26.3833 27.2167C25.8611 27.7389 25.2333 28 24.5 28H19.1666C18.7889 28 18.4722 27.8722 18.2166 27.6167C17.9611 27.3611 17.8333 27.0445 17.8333 26.6667V20H15.1666V26.6667C15.1666 27.0445 15.0389 27.3611 14.7833 27.6167C14.5278 27.8722 14.2111 28 13.8333 28H8.49998C7.76665 28 7.13887 27.7389 6.61665 27.2167C6.09442 26.6945 5.83331 26.0667 5.83331 25.3334Z" fill="white"/>
</g>
</g>
</svg>
