<svg width="33" height="32" viewBox="0 0 33 32" fill="none" xmlns="http://www.w3.org/2000/svg">
<g id="mark_chat_unread">
<mask id="mask0_1672_353" style="mask-type:alpha" maskUnits="userSpaceOnUse" x="0" y="0" width="33" height="32">
<rect id="Bounding box" x="0.5" width="32" height="32" fill="white"/>
</mask>
<g mask="url(#mask0_1672_353)">
<path id="mark_chat_unread_2" d="M8.50002 24L5.43335 27.0667C5.01113 27.4889 4.5278 27.5833 3.98335 27.35C3.43891 27.1167 3.16669 26.7 3.16669 26.1V5.33333C3.16669 4.6 3.4278 3.97222 3.95002 3.45C4.47224 2.92778 5.10002 2.66667 5.83335 2.66667H19.3C19.2111 3.11111 19.1667 3.55556 19.1667 4C19.1667 4.44445 19.2111 4.88889 19.3 5.33333H5.83335V22.8333L7.36669 21.3333H27.1667V10.5333C27.6778 10.4222 28.1556 10.2722 28.6 10.0833C29.0445 9.89445 29.4556 9.64445 29.8334 9.33333V21.3333C29.8334 22.0667 29.5722 22.6944 29.05 23.2167C28.5278 23.7389 27.9 24 27.1667 24H8.50002ZM25.8334 8C24.7222 8 23.7778 7.61111 23 6.83333C22.2222 6.05556 21.8334 5.11111 21.8334 4C21.8334 2.88889 22.2222 1.94444 23 1.16667C23.7778 0.388889 24.7222 0 25.8334 0C26.9445 0 27.8889 0.388889 28.6667 1.16667C29.4445 1.94444 29.8334 2.88889 29.8334 4C29.8334 5.11111 29.4445 6.05556 28.6667 6.83333C27.8889 7.61111 26.9445 8 25.8334 8Z" fill="white"/>
</g>
</g>
</svg>
