<svg width="25" height="25" viewBox="0 0 25 25" fill="none" xmlns="http://www.w3.org/2000/svg">
<path d="M16.6486 5.44891C15.7227 5.44891 14.8058 5.6313 13.9503 5.98565C13.0948 6.34 12.3175 6.85938 11.6628 7.51413C11.008 8.16889 10.4886 8.94619 10.1343 9.80167C9.77992 10.6571 9.59753 11.574 9.59753 12.5C9.59753 13.426 9.77992 14.3429 10.1343 15.1983C10.4886 16.0538 11.008 16.8311 11.6628 17.4859C12.3175 18.1406 13.0948 18.66 13.9503 19.0144C14.8058 19.3687 15.7227 19.5511 16.6486 19.5511C17.5746 19.5511 18.4915 19.3687 19.347 19.0144C20.2024 18.66 20.9798 18.1406 21.6345 17.4859C22.2893 16.8311 22.8086 16.0538 23.163 15.1983C23.5173 14.3429 23.6997 13.426 23.6997 12.5C23.6997 11.574 23.5173 10.6571 23.163 9.80167C22.8086 8.94619 22.2893 8.16889 21.6345 7.51413C20.9798 6.85938 20.2024 6.34 19.347 5.98565C18.4915 5.6313 17.5746 5.44891 16.6486 5.44891Z" fill="#FF9800"/>
<path d="M8.59028 5.44891C7.66432 5.44891 6.74742 5.6313 5.89194 5.98565C5.03646 6.34 4.25916 6.85938 3.6044 7.51413C2.94965 8.16889 2.43027 8.94619 2.07592 9.80167C1.72157 10.6571 1.53918 11.574 1.53918 12.5C1.53918 13.426 1.72157 14.3429 2.07592 15.1983C2.43027 16.0538 2.94965 16.8311 3.6044 17.4859C4.25916 18.1406 5.03646 18.66 5.89194 19.0144C6.74742 19.3687 7.66432 19.5511 8.59028 19.5511C9.51624 19.5511 10.4331 19.3687 11.2886 19.0144C12.1441 18.66 12.9214 18.1406 13.5762 17.4859C14.2309 16.8311 14.7503 16.0538 15.1046 15.1983C15.459 14.3429 15.6414 13.426 15.6414 12.5C15.6414 11.574 15.459 10.6571 15.1046 9.80167C14.7503 8.94619 14.2309 8.16889 13.5762 7.51413C12.9214 6.85938 12.1441 6.34 11.2886 5.98565C10.4331 5.6313 9.51624 5.44891 8.59028 5.44891Z" fill="#D50000"/>
<path d="M9.59753 12.5C9.59753 14.8949 10.7942 17.0077 12.6194 18.2819C14.4447 17.0077 15.6413 14.8949 15.6413 12.5C15.6413 10.1052 14.4447 7.99237 12.6194 6.71814C10.7942 7.99237 9.59753 10.1052 9.59753 12.5Z" fill="#FF3D00"/>
</svg>
