<svg width="33" height="32" viewBox="0 0 33 32" fill="none" xmlns="http://www.w3.org/2000/svg">
<mask id="mask0_1672_364" style="mask-type:alpha" maskUnits="userSpaceOnUse" x="0" y="0" width="33" height="32">
<rect x="0.5" width="32" height="32" fill="white"/>
</mask>
<g mask="url(#mask0_1672_364)">
<path d="M16.5 16C15.0333 16 13.7778 15.4778 12.7333 14.4334C11.6889 13.3889 11.1666 12.1334 11.1666 10.6667C11.1666 9.20004 11.6889 7.94449 12.7333 6.90004C13.7778 5.8556 15.0333 5.33337 16.5 5.33337C17.9666 5.33337 19.2222 5.8556 20.2666 6.90004C21.3111 7.94449 21.8333 9.20004 21.8333 10.6667C21.8333 12.1334 21.3111 13.3889 20.2666 14.4334C19.2222 15.4778 17.9666 16 16.5 16ZM5.83331 24V22.9334C5.83331 22.1778 6.02776 21.4834 6.41665 20.85C6.80554 20.2167 7.3222 19.7334 7.96665 19.4C9.34442 18.7112 10.7444 18.1945 12.1666 17.85C13.5889 17.5056 15.0333 17.3334 16.5 17.3334C17.9666 17.3334 19.4111 17.5056 20.8333 17.85C22.2555 18.1945 23.6555 18.7112 25.0333 19.4C25.6778 19.7334 26.1944 20.2167 26.5833 20.85C26.9722 21.4834 27.1666 22.1778 27.1666 22.9334V24C27.1666 24.7334 26.9055 25.3612 26.3833 25.8834C25.8611 26.4056 25.2333 26.6667 24.5 26.6667H8.49998C7.76665 26.6667 7.13887 26.4056 6.61665 25.8834C6.09442 25.3612 5.83331 24.7334 5.83331 24ZM8.49998 24H24.5V22.9334C24.5 22.6889 24.4389 22.4667 24.3166 22.2667C24.1944 22.0667 24.0333 21.9112 23.8333 21.8C22.6333 21.2 21.4222 20.75 20.2 20.45C18.9778 20.15 17.7444 20 16.5 20C15.2555 20 14.0222 20.15 12.8 20.45C11.5778 20.75 10.3666 21.2 9.16665 21.8C8.96665 21.9112 8.80554 22.0667 8.68331 22.2667C8.56109 22.4667 8.49998 22.6889 8.49998 22.9334V24ZM16.5 13.3334C17.2333 13.3334 17.8611 13.0723 18.3833 12.55C18.9055 12.0278 19.1666 11.4 19.1666 10.6667C19.1666 9.93337 18.9055 9.3056 18.3833 8.78337C17.8611 8.26115 17.2333 8.00004 16.5 8.00004C15.7666 8.00004 15.1389 8.26115 14.6166 8.78337C14.0944 9.3056 13.8333 9.93337 13.8333 10.6667C13.8333 11.4 14.0944 12.0278 14.6166 12.55C15.1389 13.0723 15.7666 13.3334 16.5 13.3334Z" fill="white"/>
</g>
</svg>
