<svg width="21" height="20" viewBox="0 0 21 20" fill="none" xmlns="http://www.w3.org/2000/svg">
<path d="M13.201 19.4C12.8177 19.7833 12.3427 19.975 11.776 19.975C11.2094 19.975 10.7344 19.7833 10.3511 19.4L1.55105 10.6C1.36772 10.4167 1.22188 10.2 1.11355 9.95C1.00522 9.7 0.95105 9.43333 0.95105 9.15V2C0.95105 1.45 1.14688 0.979167 1.53855 0.5875C1.93022 0.195833 2.40105 0 2.95105 0H10.1011C10.3844 0 10.651 0.0541667 10.901 0.1625C11.151 0.270833 11.3677 0.416667 11.5511 0.6L20.351 9.425C20.7344 9.80833 20.9261 10.2792 20.9261 10.8375C20.9261 11.3958 20.7344 11.8667 20.351 12.25L13.201 19.4ZM11.776 18L18.9261 10.85L10.1011 2H2.95105V9.15L11.776 18ZM5.45105 6C5.86772 6 6.22188 5.85417 6.51355 5.5625C6.80522 5.27083 6.95105 4.91667 6.95105 4.5C6.95105 4.08333 6.80522 3.72917 6.51355 3.4375C6.22188 3.14583 5.86772 3 5.45105 3C5.03438 3 4.68022 3.14583 4.38855 3.4375C4.09688 3.72917 3.95105 4.08333 3.95105 4.5C3.95105 4.91667 4.09688 5.27083 4.38855 5.5625C4.68022 5.85417 5.03438 6 5.45105 6Z" fill="#6200EE"/>
</svg>
