<svg width="25" height="25" viewBox="0 0 25 25" fill="none" xmlns="http://www.w3.org/2000/svg">
<path d="M23.0754 18.0401C23.0754 19.1527 22.1734 20.0547 21.0608 20.0547H3.93672C2.82416 20.0547 1.92212 19.1527 1.92212 18.0401V6.95985C1.92212 5.84729 2.82416 4.94525 3.93672 4.94525H21.0608C22.1734 4.94525 23.0754 5.84729 23.0754 6.95985V18.0401Z" fill="#1565C0"/>
<path d="M8.05955 9.98177L6.73697 13.9264C6.73697 13.9264 6.40103 12.2578 6.36779 12.0482C5.61483 10.3303 4.50378 10.426 4.50378 10.426L5.81327 15.5219V15.5209H7.40531L9.60676 9.98177H8.05955ZM9.32019 15.5219H10.7662L11.6405 9.98177H10.1764L9.32019 15.5219ZM19.5538 9.98177H18.0323L15.6601 15.5219H17.0965L17.3927 14.7307H19.2038L19.3579 15.5219H20.674L19.5538 9.98177ZM17.7936 13.6725L18.5808 11.5788L18.9928 13.6725H17.7936ZM13.6919 11.5965C13.6919 11.2913 13.9427 11.0641 14.6619 11.0641C15.1293 11.0641 15.6647 11.4036 15.6647 11.4036L15.8994 10.2406C15.8994 10.2406 15.2154 9.98126 14.544 9.98126C13.0235 9.98126 12.2393 10.7085 12.2393 11.6292C12.2393 13.2943 14.2434 13.0661 14.2434 13.9213C14.2434 14.0679 14.127 14.4068 13.2925 14.4068C12.4554 14.4068 11.9029 14.1001 11.9029 14.1001L11.6536 15.2162C11.6536 15.2162 12.189 15.5214 13.2235 15.5214C14.2605 15.5214 15.6989 14.7458 15.6989 13.6317C15.6989 12.2915 13.6919 12.1948 13.6919 11.5965Z" fill="white"/>
<path d="M6.5616 12.9759L6.07508 10.5846C6.07508 10.5846 5.85498 10.0663 5.28284 10.0663C4.71069 10.0663 3.04663 10.0663 3.04663 10.0663C3.04663 10.0663 5.89779 10.9084 6.5616 12.9759Z" fill="#FFC107"/>
</svg>
