<svg width="33" height="32" viewBox="0 0 33 32" fill="none" xmlns="http://www.w3.org/2000/svg">
<mask id="mask0_1672_358" style="mask-type:alpha" maskUnits="userSpaceOnUse" x="0" y="0" width="49" height="48">
<rect x="0.5" width="47.5146" height="47.5146" fill="#D9D9D9"/>
</mask>
<g mask="url(#mask0_1672_358)">
<path d="M7.16673 28.0002C6.43339 28.0002 5.80562 27.7391 5.28339 27.2169C4.76117 26.6947 4.50006 26.0669 4.50006 25.3336V6.66691C4.50006 5.93358 4.76117 5.3058 5.28339 4.78358C5.80562 4.26136 6.43339 4.00024 7.16673 4.00024H25.8334C26.5667 4.00024 27.1945 4.26136 27.7167 4.78358C28.239 5.3058 28.5001 5.93358 28.5001 6.66691V10.0002H25.8334V6.66691H7.16673V25.3336H25.8334V22.0002H28.5001V25.3336C28.5001 26.0669 28.239 26.6947 27.7167 27.2169C27.1945 27.7391 26.5667 28.0002 25.8334 28.0002H7.16673ZM17.8334 22.6669C17.1001 22.6669 16.4723 22.4058 15.9501 21.8836C15.4278 21.3614 15.1667 20.7336 15.1667 20.0002V12.0002C15.1667 11.2669 15.4278 10.6391 15.9501 10.1169C16.4723 9.59469 17.1001 9.33358 17.8334 9.33358H27.1667C27.9001 9.33358 28.5278 9.59469 29.0501 10.1169C29.5723 10.6391 29.8334 11.2669 29.8334 12.0002V20.0002C29.8334 20.7336 29.5723 21.3614 29.0501 21.8836C28.5278 22.4058 27.9001 22.6669 27.1667 22.6669H17.8334ZM27.1667 20.0002V12.0002H17.8334V20.0002H27.1667ZM21.8334 18.0002C22.389 18.0002 22.8612 17.8058 23.2501 17.4169C23.639 17.028 23.8334 16.5558 23.8334 16.0002C23.8334 15.4447 23.639 14.9725 23.2501 14.5836C22.8612 14.1947 22.389 14.0002 21.8334 14.0002C21.2778 14.0002 20.8056 14.1947 20.4167 14.5836C20.0278 14.9725 19.8334 15.4447 19.8334 16.0002C19.8334 16.5558 20.0278 17.028 20.4167 17.4169C20.8056 17.8058 21.2778 18.0002 21.8334 18.0002Z" fill="white"/>
</g>
</svg>
